<svg xmlns="http://www.w3.org/2000/svg" xmlns:xlink="http://www.w3.org/1999/xlink" width="1120" zoomAndPan="magnify" viewBox="0 0 840 582.75" height="777" preserveAspectRatio="xMidYMid meet" version="1.0"><defs><filter x="0%" y="0%" width="100%" height="100%" id="0390b189bd"><feColorMatrix values="0 0 0 0 1 0 0 0 0 1 0 0 0 0 1 0 0 0 1 0" color-interpolation-filters="sRGB"/></filter><mask id="f1c5160962"><g filter="url(#0390b189bd)"><rect x="-84" width="1008" fill="#000000" y="-58.275" height="699.3" fill-opacity="0.18"/></g></mask><clipPath id="41584a2024"><rect x="0" width="571" y="0" height="571"/></clipPath></defs><g mask="url(#f1c5160962)"><g transform="matrix(1, 0, 0, 1, 135, 6)"><g clip-path="url(#41584a2024)"><path fill="#000000" d="M 21.480469 11.453125 C 21.015625 11.539062 20.558594 11.652344 20.109375 11.796875 C 19.105469 11.980469 18.148438 12.292969 17.234375 12.742188 C 16.320312 13.191406 15.484375 13.757812 14.726562 14.441406 C 13.972656 15.121094 13.320312 15.894531 12.78125 16.757812 C 12.238281 17.621094 11.828125 18.542969 11.542969 19.519531 C 11.257812 20.5 11.113281 21.496094 11.105469 22.515625 C 11.097656 23.535156 11.234375 24.535156 11.503906 25.515625 C 11.777344 26.5 12.179688 27.425781 12.710938 28.292969 C 13.242188 29.164062 13.882812 29.945312 14.628906 30.632812 L 540.703125 556.710938 C 541.222656 557.226562 541.785156 557.6875 542.394531 558.09375 C 543 558.5 543.644531 558.84375 544.320312 559.125 C 544.996094 559.40625 545.691406 559.617188 546.410156 559.757812 C 547.125 559.902344 547.851562 559.972656 548.582031 559.972656 C 549.3125 559.972656 550.039062 559.902344 550.753906 559.757812 C 551.472656 559.617188 552.167969 559.40625 552.84375 559.125 C 553.519531 558.84375 554.164062 558.5 554.773438 558.09375 C 555.378906 557.6875 555.941406 557.226562 556.460938 556.710938 C 556.976562 556.191406 557.4375 555.628906 557.84375 555.023438 C 558.25 554.414062 558.59375 553.769531 558.875 553.09375 C 559.15625 552.417969 559.367188 551.722656 559.507812 551.003906 C 559.652344 550.289062 559.722656 549.5625 559.722656 548.832031 C 559.722656 548.101562 559.652344 547.375 559.507812 546.660156 C 559.367188 545.941406 559.15625 545.246094 558.875 544.570312 C 558.59375 543.894531 558.25 543.25 557.84375 542.644531 C 557.4375 542.035156 556.976562 541.472656 556.460938 540.953125 L 463.644531 448.136719 C 466.785156 446.523438 469.78125 445.078125 472.890625 442.660156 C 475.082031 441.5625 476.191406 439.289062 478.371094 438.207031 C 491.523438 428.34375 507.003906 416.367188 531.113281 382.378906 C 549.734375 371.417969 558.59375 359.226562 557.488281 346.074219 C 557.488281 331.835938 545.429688 319.90625 524.609375 311.140625 C 504.878906 288.125 472 262.777344 436.929688 241.957031 C 435.832031 240.859375 434.597656 236.339844 433.503906 233.050781 C 430.214844 220.996094 423.707031 202.429688 399.597656 188.183594 C 376.570312 173.933594 334.863281 162.085938 318.425781 157.699219 C 317.328125 150.027344 316.371094 136.878906 316.371094 113.863281 C 315.273438 66.734375 289.996094 11.796875 273.558594 11.796875 C 264.789062 11.796875 262.597656 17.414062 257.117188 31.664062 C 249.445312 50.292969 235.265625 85.367188 212.25 108.382812 C 190.332031 129.207031 185.878906 156.605469 185.878906 168.660156 C 185.683594 168.789062 185.066406 169.195312 184.851562 169.347656 L 30.382812 14.878906 C 29.820312 14.277344 29.195312 13.746094 28.507812 13.285156 C 27.824219 12.824219 27.09375 12.445312 26.324219 12.148438 C 25.554688 11.851562 24.757812 11.644531 23.941406 11.527344 C 23.125 11.410156 22.304688 11.386719 21.480469 11.453125 Z M 354.730469 32.691406 C 348.25 32.691406 345.9375 34.703125 328.699219 58.375 C 334.628906 78.117188 337.9375 98.628906 338.289062 113.863281 C 338.289062 125.238281 338.570312 133.890625 338.972656 140.578125 C 348.160156 143.285156 359.238281 146.742188 370.484375 150.851562 C 372.214844 144.691406 373.570312 137.925781 374.25 130.984375 C 378.011719 87.804688 371.554688 45.464844 363.292969 36.457031 C 361.210938 34.199219 357.796875 32.691406 354.730469 32.691406 Z M 150.601562 194.691406 C 136.351562 205.652344 121.078125 218.800781 105.734375 233.050781 C 67.375 268.121094 14.699219 324.15625 13.601562 324.15625 C 9.21875 328.539062 9.21875 335.183594 13.601562 339.566406 C 17.984375 343.949219 207.867188 552.1875 212.25 547.804688 L 234.171875 547.804688 C 234.171875 547.804688 235.199219 507.332031 235.199219 491.976562 C 235.199219 455.808594 255.882812 417.3125 292.050781 417.3125 C 330.410156 417.3125 380.90625 435.945312 400.625 444.714844 L 401.652344 444.714844 L 365.6875 409.777344 Z M 373.222656 241.957031 C 385.324219 241.957031 395.144531 251.773438 395.144531 263.875 C 395.144531 275.976562 385.324219 285.792969 373.222656 285.792969 C 361.125 285.792969 351.304688 275.976562 351.304688 263.875 C 351.304688 251.773438 361.125 241.957031 373.222656 241.957031 Z M 373.222656 241.957031 " fill-opacity="1" fill-rule="nonzero"/></g></g></g></svg>